<svg width="30" height="32" viewBox="0 0 30 32" fill="none" xmlns="http://www.w3.org/2000/svg">
<path d="M0 17.8128V30.3128C0 30.7737 0.373333 31.1462 0.833333 31.1462H5C5.46 31.1462 5.83333 30.7737 5.83333 30.3128V17.8128C5.83333 17.352 5.46 16.9795 5 16.9795H0.833333C0.373333 16.9795 0 17.352 0 17.8128ZM1.66667 18.6462H4.16667V29.4795H1.66667V18.6462Z" fill="white"/>
<path d="M8.75 12.813C8.29 12.813 7.91667 13.1855 7.91667 13.6463V30.313C7.91667 30.7738 8.29 31.1463 8.75 31.1463H12.9167C13.3767 31.1463 13.75 30.7738 13.75 30.313V13.6463C13.75 13.1855 13.3767 12.813 12.9167 12.813H8.75ZM12.0833 29.4797H9.58333V14.4797H12.0833V29.4797Z" fill="white"/>
<path d="M16.6667 16.9795C16.2058 16.9795 15.8333 17.352 15.8333 17.8128V30.3128C15.8333 30.7737 16.2058 31.1462 16.6667 31.1462H20.8333C21.2942 31.1462 21.6667 30.7737 21.6667 30.3128V17.8128C21.6667 17.352 21.2942 16.9795 20.8333 16.9795H16.6667ZM20 29.4795H17.5V18.6462H20V29.4795Z" fill="white"/>
<path d="M24.1667 9.47982V30.3132C24.1667 30.774 24.5392 31.1465 25 31.1465H29.1667C29.6275 31.1465 30 30.774 30 30.3132V9.47982C30 9.01898 29.6275 8.64648 29.1667 8.64648H25C24.5392 8.64648 24.1667 9.01898 24.1667 9.47982ZM25.8333 10.3132H28.3333V29.4798H25.8333V10.3132Z" fill="white"/>
<path d="M27.525 0.127225C27.1333 -0.117775 26.62 0.00222477 26.3767 0.391391L18.56 12.8989L11.3792 6.66306C11.3508 6.63889 11.3158 6.63056 11.2858 6.61056C11.2383 6.57889 11.1925 6.54889 11.1408 6.52806C11.0908 6.50806 11.0425 6.49806 10.9908 6.48723C10.9383 6.47723 10.8875 6.46889 10.8333 6.46889C10.7792 6.46889 10.7292 6.47723 10.6758 6.48723C10.6242 6.49806 10.575 6.50722 10.5258 6.52806C10.4733 6.54806 10.4275 6.57889 10.38 6.61056C10.3492 6.63056 10.3142 6.63889 10.2867 6.66306L2.37 13.5381C2.0225 13.8397 1.98583 14.3656 2.2875 14.7131C2.4525 14.9039 2.68417 15.0006 2.91667 15.0006C3.11 15.0006 3.305 14.9331 3.4625 14.7964L10.8325 8.39556L18.2033 14.7964C18.2208 14.8122 18.2442 14.8172 18.2633 14.8322C18.28 14.8447 18.2892 14.8622 18.3075 14.8739C18.3417 14.8947 18.3783 14.9056 18.4142 14.9214C18.4392 14.9331 18.4633 14.9464 18.49 14.9547C18.575 14.9831 18.6617 15.0014 18.7492 15.0014C18.7492 15.0014 18.7492 15.0014 18.75 15.0014H18.7508C18.8558 15.0006 18.9575 14.9756 19.055 14.9364C19.0725 14.9297 19.09 14.9247 19.1075 14.9164C19.2008 14.8722 19.285 14.8097 19.3583 14.7306C19.3642 14.7231 19.3742 14.7214 19.3792 14.7139C19.3883 14.7039 19.39 14.6914 19.3975 14.6814C19.4158 14.6572 19.4392 14.6364 19.4558 14.6097L27.7892 1.27639C28.0342 0.885558 27.915 0.370558 27.525 0.127225Z" fill="white"/>
</svg>
