<svg width="30" height="30" viewBox="0 0 30 30" fill="none" xmlns="http://www.w3.org/2000/svg">
<path d="M22.0312 4.63818H7.96875C7.84443 4.63818 7.7252 4.68705 7.63729 4.77403C7.54939 4.86101 7.5 4.97899 7.5 5.102C7.5 5.22501 7.54939 5.34298 7.63729 5.42997C7.7252 5.51695 7.84443 5.56582 7.96875 5.56582H22.0312C22.1556 5.56582 22.2748 5.51695 22.3627 5.42997C22.4506 5.34298 22.5 5.22501 22.5 5.102C22.5 4.97899 22.4506 4.86101 22.3627 4.77403C22.2748 4.68705 22.1556 4.63818 22.0312 4.63818Z" fill="#3424AC"/>
<path d="M22.0312 6.95703H7.96875C7.84443 6.95703 7.7252 7.0059 7.63729 7.09288C7.54939 7.17986 7.5 7.29784 7.5 7.42085C7.5 7.54386 7.54939 7.66183 7.63729 7.74881C7.7252 7.8358 7.84443 7.88466 7.96875 7.88466H22.0312C22.1556 7.88466 22.2748 7.8358 22.3627 7.74881C22.4506 7.66183 22.5 7.54386 22.5 7.42085C22.5 7.29784 22.4506 7.17986 22.3627 7.09288C22.2748 7.0059 22.1556 6.95703 22.0312 6.95703Z" fill="#3424AC"/>
<path d="M22.0312 9.27637H7.96875C7.84443 9.27637 7.7252 9.32523 7.63729 9.41222C7.54939 9.4992 7.5 9.61717 7.5 9.74018C7.5 9.86319 7.54939 9.98117 7.63729 10.0682C7.7252 10.1551 7.84443 10.204 7.96875 10.204H22.0312C22.1556 10.204 22.2748 10.1551 22.3627 10.0682C22.4506 9.98117 22.5 9.86319 22.5 9.74018C22.5 9.61717 22.4506 9.4992 22.3627 9.41222C22.2748 9.32523 22.1556 9.27637 22.0312 9.27637Z" fill="#3424AC"/>
<path d="M22.0312 11.5952H7.96875C7.84443 11.5952 7.7252 11.6441 7.63729 11.7311C7.54939 11.818 7.5 11.936 7.5 12.059C7.5 12.182 7.54939 12.3 7.63729 12.387C7.7252 12.474 7.84443 12.5228 7.96875 12.5228H22.0312C22.1556 12.5228 22.2748 12.474 22.3627 12.387C22.4506 12.3 22.5 12.182 22.5 12.059C22.5 11.936 22.4506 11.818 22.3627 11.7311C22.2748 11.6441 22.1556 11.5952 22.0312 11.5952Z" fill="#3424AC"/>
<path d="M22.0312 13.9146H7.96875C7.84443 13.9146 7.7252 13.9634 7.63729 14.0504C7.54939 14.1374 7.5 14.2554 7.5 14.3784C7.5 14.5014 7.54939 14.6194 7.63729 14.7063C7.7252 14.7933 7.84443 14.8422 7.96875 14.8422H22.0312C22.1556 14.8422 22.2748 14.7933 22.3627 14.7063C22.4506 14.6194 22.5 14.5014 22.5 14.3784C22.5 14.2554 22.4506 14.1374 22.3627 14.0504C22.2748 13.9634 22.1556 13.9146 22.0312 13.9146Z" fill="#3424AC"/>
<path d="M29.0625 21.3355H26.9531V19.2484C26.9531 19.1253 26.9037 19.0074 26.8158 18.9204C26.7279 18.8334 26.6087 18.7845 26.4844 18.7845H22.2656V17.1612H23.4375C23.8103 17.1608 24.1678 17.0141 24.4314 16.7532C24.6951 16.4923 24.8433 16.1386 24.8438 15.7697V1.39145C24.8433 1.02254 24.6951 0.66885 24.4314 0.40799C24.1678 0.147131 23.8103 0.000402683 23.4375 0L6.5625 0C6.18966 0.000402683 5.83222 0.147131 5.56858 0.40799C5.30495 0.66885 5.15666 1.02254 5.15625 1.39145V15.7697C5.15666 16.1386 5.30495 16.4923 5.56858 16.7532C5.83222 17.0141 6.18966 17.1608 6.5625 17.1612H7.73438V18.7845H3.51562C3.39131 18.7845 3.27208 18.8334 3.18418 18.9204C3.09627 19.0074 3.04688 19.1253 3.04688 19.2484V21.3355H0.9375C0.68886 21.3355 0.450403 21.4333 0.274587 21.6072C0.0987721 21.7812 0 22.0171 0 22.2632L0 28.7566C0 29.0026 0.0987721 29.2386 0.274587 29.4125C0.450403 29.5865 0.68886 29.6842 0.9375 29.6842H5.15625C5.40489 29.6842 5.64335 29.5865 5.81916 29.4125L6.75666 28.4849C6.93248 28.3109 7.03125 28.075 7.03125 27.8289V22.2632C7.03125 22.0171 6.93248 21.7812 6.75666 21.6072C6.58085 21.4333 6.34239 21.3355 6.09375 21.3355H3.98438V19.7122H8.20312C8.32744 19.7122 8.44667 19.6633 8.53457 19.5763C8.62248 19.4893 8.67187 19.3714 8.67188 19.2484V17.1612H14.5312V21.3355H12.4219C12.1732 21.3355 11.9348 21.4333 11.759 21.6072C11.5831 21.7812 11.4844 22.0171 11.4844 22.2632V28.7566C11.4844 29.0026 11.5831 29.2386 11.759 29.4125C11.9348 29.5865 12.1732 29.6842 12.4219 29.6842H16.6406C16.8893 29.6842 17.1277 29.5865 17.3035 29.4125L18.241 28.4849C18.4169 28.3109 18.5156 28.075 18.5156 27.8289V22.2632C18.5156 22.0171 18.4169 21.7812 18.241 21.6072C18.0652 21.4333 17.8268 21.3355 17.5781 21.3355H15.4688V17.1612H21.3281V19.2484C21.3281 19.3714 21.3775 19.4893 21.4654 19.5763C21.5533 19.6633 21.6726 19.7122 21.7969 19.7122H26.0156V21.3355H23.9062C23.6576 21.3355 23.4192 21.4333 23.2433 21.6072C23.0675 21.7812 22.9688 22.0171 22.9688 22.2632V28.7566C22.9688 29.0026 23.0675 29.2386 23.2433 29.4125C23.4192 29.5865 23.6576 29.6842 23.9062 29.6842H28.125C28.3736 29.6842 28.6121 29.5865 28.7879 29.4125L29.7254 28.4849C29.8125 28.3987 29.8815 28.2965 29.9286 28.1839C29.9758 28.0714 30 27.9508 30 27.8289V22.2632C30 22.0171 29.9012 21.7812 29.7254 21.6072C29.5496 21.4333 29.3111 21.3355 29.0625 21.3355ZM6.09375 22.2632V27.8289L5.15625 28.7566H0.9375V22.2632H6.09375ZM6.09375 1.39145C6.09387 1.26847 6.1433 1.15057 6.23118 1.06362C6.31906 0.97666 6.43822 0.927754 6.5625 0.927632H23.4375C23.5618 0.927754 23.6809 0.97666 23.7688 1.06362C23.8567 1.15057 23.9061 1.26847 23.9062 1.39145V2.31908H6.09375V1.39145ZM17.5781 22.2632V27.8289L16.6406 28.7566H12.4219V22.2632H17.5781ZM6.5625 16.2336C6.43822 16.2334 6.31906 16.1845 6.23118 16.0976C6.1433 16.0106 6.09387 15.8927 6.09375 15.7697V3.24671H23.9062V15.7697C23.9061 15.8927 23.8567 16.0106 23.7688 16.0976C23.6809 16.1845 23.5618 16.2334 23.4375 16.2336H6.5625ZM29.0625 27.8289L28.125 28.7566H23.9062V22.2632H29.0625V27.8289Z" fill="#3424AC"/>
</svg>
