<svg width="30" height="30" viewBox="0 0 30 30" fill="none" xmlns="http://www.w3.org/2000/svg">
<path d="M0.27635 28.4909L2.27948 29.4924C2.34925 29.5282 2.42644 29.5471 2.50483 29.5475H18.5299C18.6627 29.5475 18.79 29.4948 18.884 29.4008C18.9779 29.3069 19.0306 29.1796 19.0306 29.0467C19.0306 28.9139 18.9779 28.7865 18.884 28.6926C18.79 28.5987 18.6627 28.546 18.5299 28.546H3.93206L4.3427 28.2154C4.43724 28.2647 4.54504 28.2826 4.65043 28.2664C4.75581 28.2502 4.85327 28.2007 4.92861 28.1253C6.02659 27.1074 7.48376 26.567 8.97994 26.623C9.56055 26.6226 10.1396 26.683 10.7076 26.8032C10.9958 27.0356 11.3597 27.1533 11.7293 27.1339C12.099 27.1145 12.4485 26.9593 12.7108 26.6981L13.4169 25.987L29.6672 7.20764C29.8996 6.91945 30.0173 6.55563 29.9979 6.18595C29.9785 5.81628 29.8233 5.46679 29.5621 5.20451L24.8898 0.442075C24.6213 0.172577 24.2606 0.0149518 23.8805 0.00101025C23.5003 -0.0129313 23.1291 0.117849 22.8416 0.366957L4.29262 16.7275L4.2175 16.7926L4.17243 16.8427L3.50639 17.4987C3.24516 17.761 3.08995 18.1105 3.07054 18.4802C3.05113 18.8498 3.16889 19.2136 3.40123 19.5018C3.54145 20.1178 4.11234 23.2577 2.08918 25.2809C2.01994 25.3548 1.97473 25.4479 1.95953 25.5481C1.94434 25.6482 1.95986 25.7506 2.00405 25.8417V25.8417L0.146146 27.6896C0.0901981 27.7457 0.0483651 27.8143 0.0240857 27.8898C-0.000193658 27.9652 -0.00622623 28.0453 0.00648381 28.1235C0.0191939 28.2017 0.0502836 28.2758 0.0971979 28.3397C0.144112 28.4035 0.205512 28.4554 0.27635 28.4909V28.4909ZM4.34771 19.1413C4.327 19.0588 4.28564 18.983 4.22752 18.9209C4.1796 18.874 4.14161 18.8178 4.1158 18.7559C4.08999 18.694 4.07689 18.6275 4.07729 18.5604C4.0769 18.4945 4.08954 18.4291 4.11446 18.3681C4.13938 18.3071 4.1761 18.2516 4.22251 18.2048L4.57306 17.8543L12.3602 25.6414L12.0047 25.992C11.9108 26.0852 11.7839 26.1376 11.6516 26.1376C11.5193 26.1376 11.3924 26.0852 11.2986 25.992C11.2346 25.9317 11.1574 25.8871 11.0732 25.8618C10.3855 25.7006 9.68131 25.6199 8.97493 25.6214C7.38658 25.5691 5.83147 26.0839 4.58808 27.0737L3.13581 25.6214C5.36429 22.9823 4.39278 19.3015 4.34771 19.1413Z" fill="white"/>
</svg>
