<svg width="31" height="30" viewBox="0 0 31 30" fill="none" xmlns="http://www.w3.org/2000/svg">
<path d="M29.8454 14.4201L27.951 12.5644C27.6418 12.2552 27.1778 12.2552 26.8686 12.5644C26.5593 12.8737 26.5593 13.3376 26.8686 13.6469L27.4098 14.2268H20.0258C19.6778 12.0619 17.9768 10.3608 15.8119 10.0129V2.62887L16.3531 3.1701C16.5077 3.32474 16.701 3.40206 16.8943 3.40206C17.0876 3.40206 17.2809 3.32474 17.4356 3.1701C17.7448 2.86082 17.7448 2.39691 17.4356 2.08763L15.5412 0.231959C15.232 -0.0773196 14.7294 -0.0773196 14.4588 0.231959L12.5644 2.08763C12.2552 2.39691 12.2552 2.86082 12.5644 3.1701C12.8737 3.47938 13.3376 3.47938 13.6469 3.1701L14.2655 2.62887V9.97423C12.1005 10.3222 10.3608 12.0232 10.0515 14.1881H2.66753L3.20876 13.6469C3.51804 13.3376 3.51804 12.8351 3.20876 12.5644C2.89948 12.2552 2.43557 12.2552 2.12629 12.5644L0.231959 14.4201C-0.0773196 14.7294 -0.0773196 15.1933 0.231959 15.5026L2.12629 17.3582C2.28093 17.5129 2.47423 17.5902 2.66753 17.5902C2.86082 17.5902 3.05412 17.5129 3.20876 17.3582C3.51804 17.049 3.51804 16.585 3.20876 16.2758L2.66753 15.7732H10.0129C10.3608 17.9381 12.0619 19.6778 14.2655 20.0258V27.3711L13.7242 26.8299C13.4149 26.5206 12.951 26.5206 12.6418 26.8299C12.3325 27.1392 12.3325 27.6031 12.6418 27.9124L14.5361 29.768C14.6907 29.9227 14.884 30 15.0773 30C15.2706 30 15.4639 29.9227 15.6186 29.768L17.5129 27.9124C17.8222 27.6031 17.8222 27.1392 17.5129 26.8299C17.2036 26.5206 16.7397 26.5206 16.4304 26.8299L15.8119 27.3711V20.0258C17.9768 19.6778 19.7165 17.9381 20.0644 15.7732H27.4098L26.8686 16.3144C26.5593 16.6237 26.5593 17.0876 26.8686 17.3969C27.0232 17.5515 27.2165 17.6289 27.4098 17.6289C27.6031 17.6289 27.7964 17.5515 27.951 17.3969L29.8454 15.5412C30.116 15.232 30.116 14.7294 29.8454 14.4201ZM15.0387 18.518C13.1057 18.518 11.5206 16.933 11.5206 15C11.5206 13.067 13.1057 11.482 15.0387 11.482C16.9716 11.482 18.5567 13.067 18.5567 15C18.5567 16.933 16.9716 18.518 15.0387 18.518Z" fill="#3424AC"/>
</svg>
