<svg width="33" height="31" viewBox="0 0 33 31" fill="none" xmlns="http://www.w3.org/2000/svg">
<path fill-rule="evenodd" clip-rule="evenodd" d="M4.09067 4.40889C4.09067 3.51934 3.52082 2.763 2.72712 2.48206V0.999823C2.72712 0.623037 2.4216 0.317871 2.04551 0.317871C1.66942 0.317871 1.36356 0.622691 1.36356 0.999823V2.48206C0.56985 2.763 0 3.51934 0 4.40889C0 5.29844 0.56985 6.05478 1.36356 6.33572V13.3912C0.56985 13.6722 0 14.4285 0 15.318C0 16.2076 0.56985 16.9639 1.36356 17.2449V24.3004C0.56985 24.5813 0 25.3377 0 26.2272C0 27.1167 0.56985 27.8731 1.36356 28.154V29.6359C1.36356 30.0131 1.66907 30.3179 2.04551 30.3179C2.4216 30.3179 2.72712 30.0131 2.72712 29.6359V28.1544C3.52082 27.8734 4.09067 27.1171 4.09067 26.2275C4.09067 25.338 3.52082 24.5813 2.72712 24.3007V17.2449C3.52082 16.9639 4.09067 16.2076 4.09067 15.318C4.09067 14.4285 3.52082 13.6722 2.72712 13.3912V6.33572C3.52048 6.05512 4.09067 5.29844 4.09067 4.40889ZM30.5 2.48206H21.5H11.5908C11.5908 2.48206 10.2799 2.72148 10 3L7.69281 3.89336C7.41324 4.17189 7.41324 4.62306 7.69281 4.90158L10.5 6C10.7799 6.27852 11.5908 6.33572 11.5908 6.33572H21.5H30.5C31.2539 6.33572 32.7271 6.52602 32.7271 5.77245V3.04533C32.7271 2.29176 31.2536 2.48206 30.5 2.48206ZM31 13.3912H11.5908C11.5908 13.3912 10.6773 13.6763 10.3974 13.9545L7.69281 14.8029C7.41324 15.081 7.41324 15.5326 7.69281 15.8107L10.3974 16.6819C10.6773 16.9605 11.5908 17.2449 11.5908 17.2449H31.3636C32.1175 17.2449 32.7271 17.4355 32.7271 16.6819V13.9545C32.7271 13.2006 31.7536 13.3912 31 13.3912ZM31.3636 24H11.5908C11.5908 24 10.6773 24.0229 10.3974 24.3007L7.69281 25.7117C7.41324 25.9902 7.41324 26.4414 7.69281 26.7199L10.5 28C10.7799 28.2785 11.5908 28.1544 11.5908 28.1544H31.3636C32.1175 28.1544 32.7271 28.3443 32.7271 27.5908V24.8636C32.7271 24.1097 32.1171 24 31.3636 24Z" fill="white"/>
</svg>
