<svg width="33" height="20" viewBox="0 0 33 20" fill="none" xmlns="http://www.w3.org/2000/svg">
<path d="M32.2595 10.869H20.4171C20.0081 10.869 19.677 10.5379 19.677 10.1288C19.677 9.71976 20.0081 9.38867 20.4171 9.38867H32.2595C32.6685 9.38867 32.9996 9.71976 32.9996 10.1288C32.9996 10.5379 32.6685 10.869 32.2595 10.869Z" fill="white"/>
<path d="M32.26 10.8689C32.0478 10.8689 31.8371 10.7781 31.6905 10.602L28.0722 6.25438C27.8107 5.94007 27.8536 5.47328 28.1675 5.21225C28.4818 4.95074 28.9486 4.99367 29.2096 5.30749L32.8279 9.6551C33.0894 9.96941 33.0465 10.4362 32.7327 10.6972C32.5945 10.8127 32.4267 10.8689 32.26 10.8689Z" fill="white"/>
<path d="M28.6407 15.2168C28.4739 15.2168 28.3061 15.1605 28.168 15.0456C27.8536 14.7841 27.8107 14.3173 28.0727 14.0034L31.691 9.65584C31.9521 9.34201 32.4189 9.29859 32.7332 9.5606C33.0475 9.82212 33.0904 10.2889 32.8284 10.6027L29.2101 14.9503C29.064 15.1255 28.8528 15.2168 28.6407 15.2168Z" fill="white"/>
<path d="M21.8116 19.5664H4.61407C2.06994 19.5664 0 17.4965 0 14.9524V4.99297C0 2.44884 2.06994 0.378906 4.61407 0.378906H21.8116C24.3557 0.378906 26.4256 2.44884 26.4256 4.99297V6.14809C26.4256 6.55714 26.0946 6.88824 25.6855 6.88824C25.2764 6.88824 24.9454 6.55714 24.9454 6.14809V4.99297C24.9454 3.26498 23.5396 1.8592 21.8116 1.8592H4.61407C2.88607 1.8592 1.48029 3.26498 1.48029 4.99297V14.9524C1.48029 16.6804 2.88607 18.0861 4.61407 18.0861H21.8116C23.5396 18.0861 24.9454 16.6804 24.9454 14.9524V13.7622C24.9454 13.3532 25.2764 13.0221 25.6855 13.0221C26.0946 13.0221 26.4256 13.3532 26.4256 13.7622V14.9524C26.4256 17.497 24.3557 19.5664 21.8116 19.5664Z" fill="white"/>
<path d="M1.00758 15.1659C0.807251 15.1659 0.607412 15.085 0.461357 14.9256C0.185036 14.6241 0.205761 14.1558 0.50774 13.88L7.52629 7.45704C7.82827 7.18122 8.29604 7.20243 8.57187 7.50342C8.84819 7.80491 8.82746 8.27317 8.52548 8.549L1.50694 14.972C1.36483 15.1022 1.18571 15.1659 1.00758 15.1659Z" fill="white"/>
<path d="M18.8722 19.246C18.6867 19.246 18.5012 19.1769 18.3576 19.0378L7.51099 8.5351C7.2174 8.25088 7.21 7.78212 7.49422 7.48853C7.77892 7.19494 8.2467 7.18705 8.54078 7.47176L19.3869 17.9739C19.6805 18.2581 19.6879 18.7269 19.4036 19.0205C19.2586 19.1705 19.0656 19.246 18.8722 19.246Z" fill="white"/>
<path d="M12.8321 12.5605C12.6333 12.5605 12.4354 12.4811 12.2894 12.3242C12.0111 12.0246 12.0288 11.5564 12.3283 11.2781L14.8286 8.95699C15.1281 8.67869 15.5963 8.69646 15.8746 8.99597C16.1529 9.29548 16.1352 9.76374 15.8356 10.042L13.3354 12.3631C13.1928 12.4949 13.0122 12.5605 12.8321 12.5605Z" fill="white"/>
<path d="M24.1396 18.7866C23.954 18.7866 23.768 18.717 23.6244 18.5779L14.8167 10.0307C14.5231 9.74597 14.5162 9.27722 14.8009 8.98412C15.0861 8.69053 15.5544 8.68362 15.8475 8.96833L24.6552 17.5155C24.9488 17.8002 24.9557 18.269 24.671 18.5621C24.5254 18.7116 24.3325 18.7866 24.1396 18.7866Z" fill="white"/>
<path d="M20.2578 8.16172C18.8619 8.16172 17.7265 7.02584 17.7265 5.62993C17.7265 4.23401 18.8619 3.09863 20.2578 3.09863C21.6537 3.09863 22.7891 4.23401 22.7891 5.62993C22.7891 7.02584 21.6537 8.16172 20.2578 8.16172ZM20.2578 4.57843C19.678 4.57843 19.2068 5.05015 19.2068 5.62943C19.2068 6.20872 19.6785 6.68093 20.2578 6.68093C20.8371 6.68093 21.3088 6.20921 21.3088 5.62943C21.3088 5.04965 20.8371 4.57843 20.2578 4.57843Z" fill="white"/>
</svg>
