<svg width="30" height="27" viewBox="0 0 30 27" fill="none" xmlns="http://www.w3.org/2000/svg">
<path d="M1.6465 20.1465L2.3535 20.8535L9.207 14H21.793L15.6465 20.1465L16.3535 20.8535L23.207 14H30V13H29.207L22.3535 6.14648L21.6465 6.85349L27.793 13H15.207L8.3535 6.14648L7.6465 6.85349L13.793 13H0V14H7.793L1.6465 20.1465Z" fill="#3424AC"/>
<path d="M8.5 4H7.5V5H8.5V4Z" fill="#3424AC"/>
<path d="M1.5 2H0V3H1.5V2Z" fill="#3424AC"/>
<path d="M3 0H0V1H3V0Z" fill="#3424AC"/>
<path d="M8.5 0H4V1H8.5V0Z" fill="#3424AC"/>
<path d="M5 2H2.5V3H5V2Z" fill="#3424AC"/>
<path d="M8.5 2H6V3H8.5V2Z" fill="#3424AC"/>
<path d="M6.5 4H4V5H6.5V4Z" fill="#3424AC"/>
<path d="M3 4H0V5H3V4Z" fill="#3424AC"/>
<path d="M22.5 4H21.5V5H22.5V4Z" fill="#3424AC"/>
<path d="M15.5 2H14V3H15.5V2Z" fill="#3424AC"/>
<path d="M17 0H14V1H17V0Z" fill="#3424AC"/>
<path d="M22.5 0H18V1H22.5V0Z" fill="#3424AC"/>
<path d="M19 2H16.5V3H19V2Z" fill="#3424AC"/>
<path d="M22.5 2H20V3H22.5V2Z" fill="#3424AC"/>
<path d="M20.5 4H18V5H20.5V4Z" fill="#3424AC"/>
<path d="M17 4H14V5H17V4Z" fill="#3424AC"/>
<path d="M8.5 26H7.5V27H8.5V26Z" fill="#3424AC"/>
<path d="M1.5 24H0V25H1.5V24Z" fill="#3424AC"/>
<path d="M3 22H0V23H3V22Z" fill="#3424AC"/>
<path d="M8.5 22H4V23H8.5V22Z" fill="#3424AC"/>
<path d="M5 24H2.5V25H5V24Z" fill="#3424AC"/>
<path d="M8.5 24H6V25H8.5V24Z" fill="#3424AC"/>
<path d="M6.5 26H4V27H6.5V26Z" fill="#3424AC"/>
<path d="M3 26H0V27H3V26Z" fill="#3424AC"/>
<path d="M22.5 26H21.5V27H22.5V26Z" fill="#3424AC"/>
<path d="M15.5 24H14V25H15.5V24Z" fill="#3424AC"/>
<path d="M17 22H14V23H17V22Z" fill="#3424AC"/>
<path d="M22.5 22H18V23H22.5V22Z" fill="#3424AC"/>
<path d="M19 24H16.5V25H19V24Z" fill="#3424AC"/>
<path d="M22.5 24H20V25H22.5V24Z" fill="#3424AC"/>
<path d="M20.5 26H18V27H20.5V26Z" fill="#3424AC"/>
<path d="M17 26H14V27H17V26Z" fill="#3424AC"/>
</svg>
