<svg width="30" height="30" viewBox="0 0 30 30" fill="none" xmlns="http://www.w3.org/2000/svg">
<path d="M23.0745 0C20.8974 0 18.9454 1.01168 17.6761 2.58738C17.605 2.6577 17.5495 2.74225 17.5132 2.83551C17.477 2.92878 17.4609 3.02866 17.466 3.12858C17.471 3.22851 17.4972 3.32622 17.5426 3.41535C17.5881 3.50447 17.6519 3.58298 17.7298 3.64574C17.8077 3.70849 17.898 3.75406 17.9948 3.77948C18.0916 3.8049 18.1926 3.80959 18.2913 3.79324C18.39 3.77688 18.4842 3.73987 18.5676 3.68459C18.651 3.62932 18.7218 3.55705 18.7753 3.47252C19.7855 2.21845 21.3351 1.42017 23.0745 1.42017C26.1248 1.42017 28.5799 3.87528 28.5799 6.9255C28.5799 9.97581 26.1249 12.4406 23.0745 12.4406C21.4573 12.4406 20.0071 11.7466 18.999 10.6412C18.938 10.5666 18.8625 10.5052 18.777 10.4608C18.6916 10.4163 18.598 10.3897 18.5019 10.3826C18.4058 10.3754 18.3093 10.3879 18.2182 10.4193C18.1271 10.4506 18.0434 10.5001 17.972 10.5649C17.9007 10.6296 17.8433 10.7082 17.8033 10.7958C17.7633 10.8834 17.7415 10.9783 17.7393 11.0746C17.7371 11.1709 17.7545 11.2666 17.7905 11.356C17.8264 11.4453 17.8802 11.5264 17.9485 11.5944C18.4426 12.1363 19.0253 12.5917 19.6701 12.9561C18.9298 13.503 17.9017 13.4444 17.2287 12.7713C16.4861 12.0288 16.4861 10.8488 17.2287 10.1062C17.9714 9.3635 19.1512 9.3635 19.8939 10.1062C20.0881 10.3004 20.2301 10.5194 20.3218 10.7579C20.3497 10.8517 20.3967 10.9387 20.4597 11.0134C20.5228 11.0882 20.6007 11.1491 20.6884 11.1924C20.7761 11.2357 20.8718 11.2604 20.9695 11.2649C21.0672 11.2695 21.1648 11.2538 21.2562 11.2188C21.3476 11.1839 21.4307 11.1305 21.5005 11.0619C21.5702 10.9933 21.6251 10.9111 21.6615 10.8203C21.698 10.7295 21.7153 10.6322 21.7124 10.5345C21.7095 10.4367 21.6865 10.3405 21.6447 10.2521C21.4834 9.83267 21.232 9.43081 20.8957 9.09461C20.253 8.45188 19.409 8.13164 18.5613 8.13164C17.7136 8.13164 16.8695 8.45188 16.2269 9.09461C14.9415 10.38 14.9414 12.4878 16.2269 13.7732C17.5122 15.0586 19.6103 15.0585 20.8957 13.7732C20.9615 13.7074 21.0212 13.6393 21.0805 13.5689C21.7133 13.7595 22.3824 13.8608 23.0745 13.8608C23.4731 13.8608 23.8614 13.8288 24.2418 13.7635V15.7574L11.7136 28.2856L1.70471 18.2864L14.2329 5.75827H20.6428L24.2515 9.37664V10.6898C24.2497 10.7841 24.2668 10.8779 24.3016 10.9656C24.3365 11.0533 24.3885 11.1332 24.4547 11.2006C24.5208 11.2679 24.5996 11.3215 24.6867 11.358C24.7737 11.3945 24.8671 11.4133 24.9615 11.4133C25.0559 11.4133 25.1494 11.3945 25.2364 11.358C25.3234 11.3215 25.4023 11.2679 25.4684 11.2006C25.5345 11.1332 25.5866 11.0533 25.6214 10.9656C25.6563 10.8779 25.6734 10.7841 25.6716 10.6898V9.07514C25.6684 8.88805 25.5915 8.70978 25.4576 8.57907L21.4307 4.54244C21.364 4.47675 21.285 4.42489 21.1982 4.38984C21.1114 4.35479 21.0185 4.33725 20.9249 4.33822H13.9411C13.9184 4.33713 13.8956 4.33713 13.873 4.33822C13.7077 4.35307 13.5528 4.42532 13.4353 4.54244L0.206786 17.7806C0.0743485 17.9137 0 18.0938 0 18.2816C0 18.4693 0.0743485 18.6495 0.206786 18.7826L11.2175 29.7933C11.3506 29.9257 11.5307 30.0001 11.7185 30.0001C11.9062 30.0001 12.0863 29.9257 12.2194 29.7933L25.4576 16.5648C25.5233 16.4981 25.5752 16.4191 25.6102 16.3323C25.6453 16.2455 25.6628 16.1526 25.6619 16.059V13.3549C28.201 12.3243 30 9.82827 30 6.9255C30 3.10768 26.8924 0 23.0745 0V0ZM8.16332 13.9191C7.9888 13.9383 7.82761 14.0216 7.71085 14.1527C7.59409 14.2838 7.53005 14.4536 7.53108 14.6291V18.6755C7.5293 18.7699 7.54635 18.8637 7.58123 18.9514C7.61612 19.0391 7.66814 19.119 7.73425 19.1863C7.80036 19.2537 7.87924 19.3072 7.96627 19.3437C8.0533 19.3803 8.14675 19.3991 8.24113 19.3991C8.33552 19.3991 8.42897 19.3803 8.516 19.3437C8.60303 19.3072 8.68191 19.2537 8.74802 19.1863C8.81413 19.119 8.86615 19.0391 8.90103 18.9514C8.93592 18.8637 8.95297 18.7699 8.95119 18.6755V15.3392H12.2875C12.3818 15.3409 12.4756 15.3238 12.5632 15.2889C12.6509 15.254 12.7307 15.202 12.798 15.1359C12.8653 15.0698 12.9188 14.9909 12.9553 14.9039C12.9918 14.8169 13.0106 14.7235 13.0106 14.6291C13.0106 14.5348 12.9918 14.4414 12.9553 14.3544C12.9188 14.2674 12.8653 14.1885 12.798 14.1224C12.7307 14.0563 12.6509 14.0043 12.5632 13.9694C12.4756 13.9345 12.3818 13.9174 12.2875 13.9191H8.24113C8.21522 13.9177 8.18924 13.9177 8.16332 13.9191V13.9191ZM15.3612 16.9831C15.3351 16.9849 15.3091 16.9881 15.2834 16.9927C15.1089 17.0144 14.9487 17.1 14.8337 17.2329C14.7187 17.3659 14.6571 17.5368 14.6608 17.7125V21.0488H11.3245C11.2302 21.0471 11.1365 21.0642 11.0488 21.0991C10.9612 21.134 10.8814 21.1861 10.8141 21.2522C10.7468 21.3183 10.6933 21.3972 10.6568 21.4842C10.6203 21.5712 10.6015 21.6645 10.6015 21.7589C10.6015 21.8532 10.6203 21.9466 10.6568 22.0336C10.6933 22.1206 10.7468 22.1995 10.8141 22.2656C10.8814 22.3317 10.9612 22.3837 11.0488 22.4186C11.1365 22.4535 11.2302 22.4707 11.3245 22.469H15.3709C15.5592 22.4689 15.7398 22.3941 15.8729 22.2609C16.0061 22.1278 16.0809 21.9472 16.081 21.7589V17.7125C16.0836 17.6168 16.0668 17.5216 16.0317 17.4326C15.9965 17.3435 15.9438 17.2625 15.8765 17.1944C15.8093 17.1262 15.729 17.0724 15.6404 17.0361C15.5519 16.9998 15.4569 16.9817 15.3612 16.9831V16.9831Z" fill="white"/>
</svg>
