<svg width="31" height="31" viewBox="0 0 31 31" fill="none" xmlns="http://www.w3.org/2000/svg">
<path d="M20.6667 10.3333C17.7325 10.3333 15.0861 11.5687 13.2034 13.5393L11.8833 11.2292V7.70868C13.2013 6.94711 14.0027 5.51853 13.9474 3.98145C13.8699 1.8223 12.0481 0.0361789 9.88693 0.000528856C8.75492 -0.0170378 7.71487 0.403529 6.91868 1.18628C6.12198 1.96955 5.68333 3.01631 5.68333 4.13335C5.68333 5.60585 6.48468 6.97501 7.75 7.70868V11.2292L5.89982 14.4667H2.58333C1.15888 14.4667 0 15.6256 0 17.05V19.1167C0 19.4019 0.231467 19.6333 0.516667 19.6333H1.03333V21.1833C1.03333 21.4685 1.2648 21.7 1.55 21.7H10.3855C10.9058 26.9142 15.3176 31 20.6667 31C26.3645 31 31 26.3645 31 20.6667C31 14.9689 26.3645 10.3333 20.6667 10.3333ZM1.03333 17.05C1.03333 16.1954 1.72877 15.5 2.58333 15.5H6.2C6.38548 15.5 6.5565 15.4008 6.64847 15.2396L8.71513 11.6229C8.76008 11.5449 8.78333 11.4566 8.78333 11.3667V7.39713C8.78333 7.1977 8.66863 7.01635 8.48883 6.93058C7.4121 6.41856 6.71667 5.32013 6.71667 4.13335C6.71667 3.29531 7.04578 2.5105 7.64305 1.92305C8.24032 1.3356 9.02978 1.01836 9.86937 1.03386C11.4901 1.06073 12.8562 2.39993 12.9146 4.01865C12.959 5.25503 12.2646 6.3979 11.145 6.93058C10.9652 7.01635 10.8505 7.1977 10.8505 7.39713V11.3667C10.8505 11.4566 10.8738 11.5449 10.9187 11.6229L12.4827 14.3597C12.169 14.7663 11.8911 15.1983 11.6431 15.6467C11.6141 15.6984 11.5842 15.749 11.5563 15.8007C11.439 16.0213 11.3315 16.2466 11.2308 16.4755C11.1765 16.5969 11.1254 16.7188 11.0763 16.8428C11.0282 16.9648 10.9843 17.0882 10.9409 17.2117C10.8531 17.4577 10.7751 17.7072 10.7059 17.9614C10.6924 18.011 10.68 18.0611 10.6671 18.1107C10.6252 18.2735 10.5762 18.4336 10.5426 18.5995H1.55H1.03333V17.05ZM2.06667 20.6667V19.6333H10.3855C10.3783 19.7031 10.3803 19.7754 10.3747 19.8457C10.3493 20.1293 10.3333 20.4042 10.3333 20.6667H2.06667ZM21.1833 29.9403V28.4167H20.15V29.9403C15.4349 29.6794 11.6539 25.8984 11.393 21.1833H12.9167V20.15H11.393C11.3971 20.0715 11.3987 19.9919 11.4049 19.9139C11.4261 19.6855 11.4545 19.4494 11.4943 19.1978C11.5857 18.6233 11.7325 18.0627 11.9257 17.5212C11.9515 17.4499 11.9763 17.3786 12.0037 17.3083C12.0574 17.1678 12.1143 17.0288 12.1752 16.8914C12.2688 16.6821 12.3654 16.4744 12.4734 16.2735C12.4987 16.2259 12.5276 16.1805 12.554 16.1334C12.6676 15.9304 12.7875 15.7315 12.9161 15.5382C12.943 15.4979 12.9699 15.4576 12.9973 15.4173C14.5829 13.1078 17.1838 11.5573 20.15 11.393V12.9167H21.1833V11.393C25.8984 11.6539 29.6794 15.4349 29.9403 20.15H28.4167V21.1833H29.9403C29.6794 25.8984 25.8984 29.6794 21.1833 29.9403Z" fill="white"/>
<path d="M24.5241 26.7873L25.0759 27.6605C26.209 26.9449 27.1617 25.9534 27.8313 24.794L26.9364 24.2773C26.35 25.2926 25.5161 26.1601 24.5241 26.7873Z" fill="white"/>
<path d="M27.6401 22.5962C27.5497 22.9238 27.435 23.2477 27.2981 23.5603L28.2451 23.9741C28.4012 23.6171 28.5324 23.2456 28.6357 22.8716L27.6401 22.5962Z" fill="white"/>
<path d="M22.1159 20.1317L27.1979 15.8971L26.5365 15.1035L21.4541 19.3391C21.2221 19.2012 20.955 19.117 20.6667 19.117C20.2745 19.117 19.9196 19.2684 19.6463 19.5091L16.2673 17.6321L15.7651 18.5352L19.142 20.4112C19.1286 20.4949 19.1167 20.5797 19.1167 20.667C19.1167 21.5215 19.8121 22.217 20.6667 22.217C21.5212 22.217 22.2167 21.5215 22.2167 20.667C22.2167 20.4784 22.1779 20.2991 22.1159 20.1317ZM20.6667 21.1836C20.382 21.1836 20.15 20.9517 20.15 20.667C20.15 20.3823 20.382 20.1503 20.6667 20.1503C20.9514 20.1503 21.1833 20.3823 21.1833 20.667C21.1833 20.9517 20.9514 21.1836 20.6667 21.1836Z" fill="white"/>
<path d="M21.1833 24.2832H20.15V25.3165H21.1833V24.2832Z" fill="white"/>
<path d="M19.1167 24.2832H18.0833V25.3165H19.1167V24.2832Z" fill="white"/>
<path d="M23.25 24.2832H22.2167V25.3165H23.25V24.2832Z" fill="white"/>
</svg>
