<svg width="29" height="43" viewBox="0 0 29 43" fill="none" xmlns="http://www.w3.org/2000/svg">
<path d="M11.0267 13.9658C11.0291 13.9996 11.0309 14.0326 11.0366 14.066C11.0418 14.0961 11.0498 14.1248 11.0578 14.1535C11.0658 14.1832 11.0738 14.2123 11.085 14.241C11.0959 14.2697 11.109 14.2966 11.1227 14.3239C11.1363 14.3511 11.15 14.3784 11.1665 14.4043C11.1825 14.4302 11.2008 14.4537 11.2196 14.4777C11.238 14.5017 11.2563 14.5257 11.2775 14.5478C11.3001 14.5723 11.3255 14.5935 11.3504 14.6151C11.366 14.6288 11.3787 14.6443 11.3956 14.657C11.4003 14.6603 11.4055 14.6612 11.4102 14.6645C11.4817 14.7168 11.5608 14.7572 11.646 14.7878C11.6638 14.7939 11.6808 14.7991 11.6991 14.8043C11.7824 14.8288 11.869 14.8457 11.9598 14.8457C11.9603 14.8457 11.9608 14.8457 11.9612 14.8457C11.9612 14.8457 11.9612 14.8457 11.9617 14.8457C11.9622 14.8457 11.9622 14.8457 11.9622 14.8457H14.7973L11.2097 19.6134C10.8973 20.0289 10.9806 20.6189 11.3961 20.9314C11.5655 21.0589 11.7641 21.1206 11.9612 21.1206C12.2469 21.1206 12.5292 20.9912 12.7141 20.7455L17.4352 14.4707C17.4399 14.4641 17.4427 14.457 17.4474 14.4504C17.4672 14.4227 17.4837 14.3926 17.5006 14.3624C17.5142 14.338 17.5293 14.314 17.5406 14.289C17.5533 14.2608 17.5618 14.2312 17.5717 14.2015C17.5815 14.1719 17.5924 14.1432 17.5989 14.113C17.6051 14.0862 17.6074 14.0585 17.6112 14.0312C17.6159 13.9968 17.6206 13.9625 17.6215 13.9276C17.6215 13.9196 17.6239 13.9126 17.6239 13.9046C17.6239 13.8839 17.6192 13.8646 17.6178 13.8444C17.6154 13.8105 17.6135 13.7775 17.6079 13.7441C17.6027 13.714 17.5947 13.6853 17.5867 13.6566C17.5787 13.627 17.5707 13.5978 17.5594 13.5691C17.5486 13.5404 17.5354 13.5136 17.5218 13.4863C17.5081 13.459 17.4945 13.4317 17.478 13.4058C17.462 13.3799 17.4437 13.3564 17.4248 13.3324C17.4065 13.3084 17.3881 13.2844 17.367 13.2623C17.3444 13.2378 17.319 13.2166 17.294 13.195C17.2785 13.1813 17.2658 13.1658 17.2489 13.1531C17.2423 13.1484 17.2352 13.1456 17.2286 13.1409C17.2004 13.1206 17.1698 13.1042 17.1392 13.0868C17.1152 13.0736 17.0922 13.059 17.0677 13.0482C17.038 13.035 17.0065 13.0256 16.9755 13.0152C16.9477 13.0063 16.9209 12.9959 16.8931 12.9894C16.8639 12.9828 16.8334 12.9799 16.8032 12.9762C16.7717 12.9719 16.7407 12.9677 16.7087 12.9668C16.6997 12.9668 16.6917 12.9644 16.6828 12.9644H13.8477L17.4352 8.19675C17.7476 7.78125 17.6644 7.19117 17.2489 6.87872C16.8338 6.56675 16.2437 6.65003 15.9308 7.06506L11.2097 13.3395C11.205 13.346 11.2022 13.3531 11.1975 13.3597C11.1777 13.3874 11.1613 13.4176 11.1443 13.4477C11.1307 13.4721 11.1156 13.4961 11.1043 13.5211C11.0916 13.5493 11.0832 13.579 11.0733 13.6086C11.0634 13.6383 11.0526 13.667 11.046 13.6971C11.0399 13.7239 11.0375 13.7517 11.0338 13.779C11.0291 13.8133 11.0243 13.8477 11.0234 13.8825C11.0234 13.8905 11.0211 13.8975 11.0211 13.9055C11.0206 13.9262 11.0258 13.9455 11.0267 13.9658Z" fill="white"/>
<path d="M6.06704 26.025C6.87028 26.5939 7.33096 27.4522 7.33096 28.4009C7.33284 30.0318 8.66169 31.3588 10.2926 31.3588H18.3523C19.9842 31.3588 21.3126 30.0313 21.314 28.399C21.314 27.4616 21.7464 26.6038 22.472 26.1022C26.3386 23.4219 28.6471 19.0189 28.6471 14.3237C28.6471 6.42591 22.2198 0 14.3192 0C13.7813 0 13.2345 0.0301155 12.6934 0.0898761C5.99364 0.835236 0.682007 6.25133 0.0632267 12.9676C-0.413917 18.1564 1.8311 23.0384 6.06704 26.025ZM1.93745 13.1403C2.47482 7.30961 7.0858 2.60782 12.9005 1.9608C13.3724 1.90857 13.85 1.88222 14.3192 1.88222C21.1818 1.88222 26.7649 7.46348 26.7649 14.3237C26.7649 18.402 24.7594 22.2267 21.401 24.5545C20.1677 25.4062 19.4313 26.8433 19.4313 28.398C19.4308 28.9928 18.9466 29.4765 18.3518 29.4765H10.2926C9.69832 29.4765 9.21412 28.9928 9.21318 28.3787C9.21318 26.8565 8.44382 25.4025 7.15356 24.4877C3.4724 21.8926 1.52289 17.6505 1.93745 13.1403Z" fill="white"/>
<path d="M9.43152 35.0248H19.2139C19.7334 35.0248 20.155 34.6032 20.155 34.0837C20.155 33.5642 19.7334 33.1426 19.2139 33.1426H9.43152C8.91203 33.1426 8.49041 33.5642 8.49041 34.0837C8.49041 34.6032 8.91156 35.0248 9.43152 35.0248Z" fill="white"/>
<path d="M9.43152 38.7504H19.2139C19.7334 38.7504 20.155 38.3288 20.155 37.8093C20.155 37.2898 19.7334 36.8682 19.2139 36.8682H9.43152C8.91203 36.8682 8.49041 37.2898 8.49041 37.8093C8.49041 38.3288 8.91156 38.7504 9.43152 38.7504Z" fill="white"/>
<path d="M17.6244 41.4089C17.6244 40.8894 17.2027 40.4678 16.6833 40.4678H11.9617C11.4422 40.4678 11.0206 40.8894 11.0206 41.4089C11.0206 41.9284 11.4422 42.35 11.9617 42.35H16.6828C17.2027 42.35 17.6244 41.9284 17.6244 41.4089Z" fill="white"/>
</svg>
