<svg width="957" height="235" viewBox="0 0 957 235" fill="none" xmlns="http://www.w3.org/2000/svg">
<g filter="url(#filter0_d)">
<path d="M80.8912 225.812C59.235 225.812 41.6569 219.016 28.1569 205.422C14.7506 191.734 8.04749 173.547 8.04749 150.859V146.641C8.04749 131.453 10.9537 117.906 16.7662 106C22.6725 94 30.9225 84.6719 41.5162 78.0156C52.11 71.3594 63.9225 68.0312 76.9537 68.0312C97.6725 68.0312 113.657 74.6406 124.907 87.8594C136.251 101.078 141.922 119.781 141.922 143.969V157.75H42.5006C43.5319 170.312 47.7037 180.25 55.0162 187.562C62.4225 194.875 71.7037 198.531 82.86 198.531C98.5162 198.531 111.266 192.203 121.11 179.547L139.532 197.125C133.438 206.219 125.282 213.297 115.063 218.359C104.938 223.328 93.5475 225.812 80.8912 225.812ZM76.8131 95.4531C67.4381 95.4531 59.8444 98.7344 54.0319 105.297C48.3131 111.859 44.6569 121 43.0631 132.719H108.172V130.188C107.422 118.75 104.376 110.125 99.0319 104.312C93.6881 98.4062 86.2819 95.4531 76.8131 95.4531ZM203.162 70.8438L204.146 88.4219C215.396 74.8281 230.162 68.0312 248.443 68.0312C280.131 68.0312 296.256 86.1719 296.818 122.453V223H262.646V124.422C262.646 114.766 260.537 107.641 256.318 103.047C252.193 98.3594 245.396 96.0156 235.927 96.0156C222.146 96.0156 211.881 102.25 205.131 114.719V223H170.959V70.8438H203.162ZM397.151 198.531C405.682 198.531 412.761 196.047 418.386 191.078C424.011 186.109 427.011 179.969 427.386 172.656H459.589C459.214 182.125 456.261 190.984 450.729 199.234C445.198 207.391 437.698 213.859 428.229 218.641C418.761 223.422 408.542 225.812 397.573 225.812C376.292 225.812 359.417 218.922 346.948 205.141C334.479 191.359 328.245 172.328 328.245 148.047V144.531C328.245 121.375 334.432 102.859 346.807 88.9844C359.182 75.0156 376.057 68.0312 397.432 68.0312C415.526 68.0312 430.245 73.3281 441.589 83.9219C453.026 94.4219 459.026 108.25 459.589 125.406H427.386C427.011 116.688 424.011 109.516 418.386 103.891C412.854 98.2656 405.776 95.4531 397.151 95.4531C386.089 95.4531 377.557 99.4844 371.557 107.547C365.557 115.516 362.511 127.656 362.417 143.969V149.453C362.417 165.953 365.37 178.281 371.276 186.438C377.276 194.5 385.901 198.531 397.151 198.531ZM481.875 145.516C481.875 130.609 484.828 117.203 490.734 105.297C496.641 93.2969 504.938 84.1094 515.625 77.7344C526.312 71.2656 538.594 68.0312 552.469 68.0312C573 68.0312 589.641 74.6406 602.391 87.8594C615.234 101.078 622.172 118.609 623.203 140.453L623.344 148.469C623.344 163.469 620.438 176.875 614.625 188.688C608.906 200.5 600.656 209.641 589.875 216.109C579.188 222.578 566.812 225.812 552.75 225.812C531.281 225.812 514.078 218.688 501.141 204.438C488.297 190.094 481.875 171.016 481.875 147.203V145.516ZM516.047 148.469C516.047 164.125 519.281 176.406 525.75 185.312C532.219 194.125 541.219 198.531 552.75 198.531C564.281 198.531 573.234 194.031 579.609 185.031C586.078 176.031 589.312 162.859 589.312 145.516C589.312 130.141 585.984 117.953 579.328 108.953C572.766 99.9531 563.812 95.4531 552.469 95.4531C541.312 95.4531 532.453 99.9062 525.891 108.812C519.328 117.625 516.047 130.844 516.047 148.469ZM648.724 145.797C648.724 122.359 654.161 103.562 665.036 89.4062C675.911 75.1563 690.489 68.0312 708.771 68.0312C724.896 68.0312 737.927 73.6562 747.864 84.9062V7H782.036V223H751.099L749.411 207.25C739.193 219.625 725.552 225.812 708.489 225.812C690.677 225.812 676.239 218.641 665.177 204.297C654.208 189.953 648.724 170.453 648.724 145.797ZM682.896 148.75C682.896 164.219 685.849 176.312 691.755 185.031C697.755 193.656 706.239 197.969 717.208 197.969C731.177 197.969 741.396 191.734 747.864 179.266V114.297C741.583 102.109 731.458 96.0156 717.489 96.0156C706.427 96.0156 697.896 100.422 691.896 109.234C685.896 117.953 682.896 131.125 682.896 148.75ZM887.573 225.812C865.916 225.812 848.338 219.016 834.838 205.422C821.432 191.734 814.729 173.547 814.729 150.859V146.641C814.729 131.453 817.635 117.906 823.448 106C829.354 94 837.604 84.6719 848.198 78.0156C858.791 71.3594 870.604 68.0312 883.635 68.0312C904.354 68.0312 920.338 74.6406 931.588 87.8594C942.932 101.078 948.604 119.781 948.604 143.969V157.75H849.182C850.213 170.312 854.385 180.25 861.698 187.562C869.104 194.875 878.385 198.531 889.541 198.531C905.198 198.531 917.948 192.203 927.791 179.547L946.213 197.125C940.119 206.219 931.963 213.297 921.744 218.359C911.619 223.328 900.229 225.812 887.573 225.812ZM883.494 95.4531C874.119 95.4531 866.526 98.7344 860.713 105.297C854.994 111.859 851.338 121 849.744 132.719H914.854V130.188C914.104 118.75 911.057 110.125 905.713 104.312C900.369 98.4062 892.963 95.4531 883.494 95.4531Z" fill="#FF6363"/>
<path d="M28.1569 205.422L23.156 210.32L23.1729 210.337L23.19 210.354L28.1569 205.422ZM16.7662 106L10.4857 102.909L10.4808 102.919L10.4758 102.929L16.7662 106ZM124.907 87.8594L119.576 92.3962L119.585 92.4071L119.595 92.418L124.907 87.8594ZM141.922 157.75V164.75H148.922V157.75H141.922ZM42.5006 157.75V150.75H34.9024L35.5241 158.323L42.5006 157.75ZM55.0162 187.562L50.0665 192.512L50.0823 192.528L50.0981 192.544L55.0162 187.562ZM121.11 179.547L125.942 174.483L120.339 169.136L115.585 175.249L121.11 179.547ZM139.532 197.125L145.347 201.022L148.627 196.128L144.364 192.061L139.532 197.125ZM115.063 218.359L118.147 224.643L118.159 224.638L118.171 224.632L115.063 218.359ZM54.0319 105.297L48.7917 100.656L48.773 100.677L48.7545 100.698L54.0319 105.297ZM43.0631 132.719L36.127 131.775L35.0467 139.719H43.0631V132.719ZM108.172 132.719V139.719H115.172V132.719H108.172ZM108.172 130.188H115.172V129.958L115.157 129.729L108.172 130.188ZM99.0319 104.312L93.8411 109.009L93.8598 109.03L93.8787 109.05L99.0319 104.312ZM80.8912 218.812C60.8346 218.812 45.1337 212.583 33.1237 200.489L23.19 210.354C38.18 225.449 57.6354 232.812 80.8912 232.812V218.812ZM33.1577 200.524C21.2653 188.382 15.0475 172.077 15.0475 150.859H1.04749C1.04749 175.017 8.23593 195.087 23.156 210.32L33.1577 200.524ZM15.0475 150.859V146.641H1.04749V150.859H15.0475ZM15.0475 146.641C15.0475 132.361 17.775 119.89 23.0567 109.071L10.4758 102.929C4.13249 115.923 1.04749 130.545 1.04749 146.641H15.0475ZM23.0467 109.091C28.4213 98.1715 35.8214 89.8608 45.2404 83.9428L37.7921 72.0885C26.0235 79.4829 16.9237 89.8285 10.4857 102.909L23.0467 109.091ZM45.2404 83.9428C54.6707 78.0175 65.1826 75.0312 76.9537 75.0312V61.0312C62.6624 61.0312 49.5493 64.7013 37.7921 72.0885L45.2404 83.9428ZM76.9537 75.0312C96.0579 75.0312 109.916 81.0452 119.576 92.3962L130.238 83.3225C117.398 68.2361 99.2871 61.0312 76.9537 61.0312V75.0312ZM119.595 92.418C129.491 103.95 134.922 120.807 134.922 143.969H148.922C148.922 118.756 143.01 98.2058 130.219 83.3007L119.595 92.418ZM134.922 143.969V157.75H148.922V143.969H134.922ZM141.922 150.75H42.5006V164.75H141.922V150.75ZM35.5241 158.323C36.6601 172.162 41.3394 183.785 50.0665 192.512L59.966 182.613C54.0681 176.715 50.4036 168.463 49.4771 157.177L35.5241 158.323ZM50.0981 192.544C58.9149 201.249 70.0089 205.531 82.86 205.531V191.531C73.3986 191.531 65.93 188.501 59.9344 182.581L50.0981 192.544ZM82.86 205.531C100.737 205.531 115.503 198.158 126.635 183.844L115.585 175.249C107.03 186.248 96.2959 191.531 82.86 191.531V205.531ZM116.278 184.611L134.699 202.189L144.364 192.061L125.942 174.483L116.278 184.611ZM133.717 193.228C128.332 201.264 121.128 207.543 111.956 212.087L118.171 224.632C129.436 219.051 138.544 211.173 145.347 201.022L133.717 193.228ZM111.979 212.075C102.926 216.518 92.6101 218.812 80.8912 218.812V232.812C94.4849 232.812 106.951 230.138 118.147 224.643L111.979 212.075ZM76.8131 88.4531C65.5914 88.4531 56.0336 92.4794 48.7917 100.656L59.272 109.938C63.6552 104.989 69.2848 102.453 76.8131 102.453V88.4531ZM48.7545 100.698C41.8689 108.6 37.8407 119.175 36.127 131.775L49.9993 133.662C51.473 122.825 54.7573 115.119 59.3092 109.896L48.7545 100.698ZM43.0631 139.719H108.172V125.719H43.0631V139.719ZM115.172 132.719V130.188H101.172V132.719H115.172ZM115.157 129.729C114.349 117.397 111.004 106.992 104.185 99.5749L93.8787 109.05C97.7473 113.258 100.496 120.103 101.187 130.646L115.157 129.729ZM104.223 99.6161C97.301 91.9659 87.8524 88.4531 76.8131 88.4531V102.453C84.7113 102.453 90.0752 104.847 93.8411 109.009L104.223 99.6161ZM203.162 70.8438L210.151 70.4524L209.781 63.8438H203.162V70.8438ZM204.146 88.4219L197.157 88.8133L198.155 106.64L209.539 92.8848L204.146 88.4219ZM296.818 122.453H303.818V122.399L303.817 122.345L296.818 122.453ZM296.818 223V230H303.818V223H296.818ZM262.646 223H255.646V230H262.646V223ZM256.318 103.047L251.063 107.671L251.112 107.727L251.162 107.782L256.318 103.047ZM205.131 114.719L198.975 111.386L198.131 112.946V114.719H205.131ZM205.131 223V230H212.131V223H205.131ZM170.959 223H163.959V230H170.959V223ZM170.959 70.8438V63.8438H163.959V70.8438H170.959ZM196.173 71.2351L197.157 88.8133L211.135 88.0305L210.151 70.4524L196.173 71.2351ZM209.539 92.8848C219.405 80.9636 232.161 75.0312 248.443 75.0312V61.0312C228.163 61.0312 211.388 68.6927 198.753 83.9589L209.539 92.8848ZM248.443 75.0312C262.935 75.0312 272.714 79.1356 279.071 86.2873C285.581 93.6116 289.551 105.294 289.819 122.562L303.817 122.345C303.522 103.331 299.149 87.8025 289.534 76.9862C279.766 65.9972 265.638 61.0312 248.443 61.0312V75.0312ZM289.818 122.453V223H303.818V122.453H289.818ZM296.818 216H262.646V230H296.818V216ZM269.646 223V124.422H255.646V223H269.646ZM269.646 124.422C269.646 113.938 267.384 104.747 261.474 98.312L251.162 107.782C253.69 110.534 255.646 115.593 255.646 124.422H269.646ZM261.573 98.4225C255.558 91.5872 246.365 89.0156 235.927 89.0156V103.016C244.428 103.016 248.828 105.132 251.063 107.671L261.573 98.4225ZM235.927 89.0156C227.948 89.0156 220.641 90.8326 214.259 94.7083C207.888 98.5776 202.833 104.259 198.975 111.386L211.286 118.051C214.178 112.71 217.632 109.04 221.526 106.674C225.41 104.316 230.126 103.016 235.927 103.016V89.0156ZM198.131 114.719V223H212.131V114.719H198.131ZM205.131 216H170.959V230H205.131V216ZM177.959 223V70.8438H163.959V223H177.959ZM170.959 77.8438H203.162V63.8438H170.959V77.8438ZM427.386 172.656V165.656H420.735L420.395 172.298L427.386 172.656ZM459.589 172.656L466.583 172.933L466.871 165.656H459.589V172.656ZM450.729 199.234L456.523 203.163L456.533 203.148L456.544 203.133L450.729 199.234ZM346.807 88.9844L352.032 93.6437L352.039 93.6349L352.047 93.6262L346.807 88.9844ZM441.589 83.9219L436.811 89.0379L436.833 89.0582L436.855 89.0784L441.589 83.9219ZM459.589 125.406V132.406H466.822L466.585 125.177L459.589 125.406ZM427.386 125.406L420.392 125.707L420.68 132.406H427.386V125.406ZM418.386 103.891L413.394 108.799L413.415 108.82L413.436 108.84L418.386 103.891ZM371.557 107.547L377.15 111.757L377.161 111.742L377.173 111.726L371.557 107.547ZM362.417 143.969L355.417 143.929L355.417 143.949V143.969H362.417ZM371.276 186.438L365.607 190.543L365.633 190.58L365.661 190.617L371.276 186.438ZM397.151 205.531C407.14 205.531 415.94 202.578 423.02 196.324L413.751 185.832C409.581 189.516 404.225 191.531 397.151 191.531V205.531ZM423.02 196.324C430.016 190.145 433.902 182.259 434.376 173.015L420.395 172.298C420.119 177.678 418.005 182.074 413.751 185.832L423.02 196.324ZM427.386 179.656H459.589V165.656H427.386V179.656ZM452.594 172.379C452.273 180.491 449.762 188.107 444.915 195.336L456.544 203.133C462.759 193.862 466.155 183.759 466.583 172.933L452.594 172.379ZM444.936 195.305C440.123 202.402 433.564 208.105 425.074 212.392L431.385 224.889C441.832 219.614 450.273 212.379 456.523 203.163L444.936 195.305ZM425.074 212.392C416.618 216.662 407.484 218.812 397.573 218.812V232.812C409.599 232.812 420.904 230.182 431.385 224.889L425.074 212.392ZM397.573 218.812C377.953 218.812 363.082 212.539 352.139 200.444L341.757 209.837C355.752 225.305 374.631 232.812 397.573 232.812V218.812ZM352.139 200.444C341.155 188.304 335.245 171.138 335.245 148.047H321.245C321.245 173.518 327.804 194.415 341.757 209.837L352.139 200.444ZM335.245 148.047V144.531H321.245V148.047H335.245ZM335.245 144.531C335.245 122.655 341.062 105.943 352.032 93.6437L341.583 84.3251C327.803 99.7759 321.245 120.095 321.245 144.531H335.245ZM352.047 93.6262C362.894 81.3828 377.738 75.0312 397.432 75.0312V61.0312C374.377 61.0312 355.471 68.6485 341.568 84.3426L352.047 93.6262ZM397.432 75.0312C414.067 75.0312 426.976 79.8534 436.811 89.0379L446.366 78.8059C433.514 66.8028 416.986 61.0312 397.432 61.0312V75.0312ZM436.855 89.0784C446.754 98.1661 452.084 110.141 452.593 125.636L466.585 125.177C465.968 106.359 459.299 90.6777 446.323 78.7653L436.855 89.0784ZM459.589 118.406H427.386V132.406H459.589V118.406ZM434.379 125.105C433.937 114.82 430.324 105.93 423.335 98.9409L413.436 108.84C417.697 113.102 420.084 118.555 420.392 125.707L434.379 125.105ZM423.377 98.9826C416.4 91.8876 407.46 88.4531 397.151 88.4531V102.453C404.093 102.453 409.309 104.644 413.394 108.799L423.377 98.9826ZM397.151 88.4531C384.134 88.4531 373.409 93.3334 365.942 103.368L377.173 111.726C381.706 105.635 388.044 102.453 397.151 102.453V88.4531ZM365.965 103.336C358.646 113.058 355.514 126.987 355.417 143.929L369.417 144.009C369.507 128.325 372.469 117.974 377.15 111.757L365.965 103.336ZM355.417 143.969V149.453H369.417V143.969H355.417ZM355.417 149.453C355.417 166.568 358.44 180.646 365.607 190.543L376.946 182.332C372.3 175.916 369.417 165.338 369.417 149.453H355.417ZM365.661 190.617C373.153 200.684 383.993 205.531 397.151 205.531V191.531C387.81 191.531 381.4 188.316 376.892 182.258L365.661 190.617ZM490.734 105.297L497.005 108.408L497.01 108.398L497.015 108.388L490.734 105.297ZM515.625 77.7344L519.211 83.7461L519.23 83.7346L519.25 83.7229L515.625 77.7344ZM602.391 87.8594L597.352 92.719L597.361 92.7282L597.37 92.7374L602.391 87.8594ZM623.203 140.453L630.202 140.33L630.2 140.227L630.195 140.123L623.203 140.453ZM623.344 148.469H630.344V148.407L630.343 148.346L623.344 148.469ZM614.625 188.688L608.344 185.597L608.334 185.617L608.325 185.637L614.625 188.688ZM589.875 216.109L586.274 210.107L586.262 210.114L586.25 210.121L589.875 216.109ZM501.141 204.438L495.926 209.107L495.942 209.125L495.958 209.143L501.141 204.438ZM525.75 185.312L520.086 189.426L520.097 189.44L520.107 189.455L525.75 185.312ZM579.609 185.031L573.925 180.946L573.911 180.965L573.897 180.985L579.609 185.031ZM579.328 108.953L573.672 113.077L573.686 113.096L573.7 113.116L579.328 108.953ZM525.891 108.812L531.505 112.993L531.516 112.979L531.526 112.965L525.891 108.812ZM488.875 145.516C488.875 131.556 491.634 119.235 497.005 108.408L484.464 102.186C478.022 115.171 474.875 129.663 474.875 145.516H488.875ZM497.015 108.388C502.371 97.5066 509.772 89.3761 519.211 83.7461L512.039 71.7226C500.103 78.8427 490.911 89.0871 484.454 102.206L497.015 108.388ZM519.25 83.7229C528.726 77.9873 539.726 75.0312 552.469 75.0312V61.0312C537.461 61.0312 523.899 64.544 512 71.7459L519.25 83.7229ZM552.469 75.0312C571.346 75.0312 586.083 81.0358 597.352 92.719L607.429 82.9998C593.198 68.2455 574.654 61.0312 552.469 61.0312V75.0312ZM597.37 92.7374C608.809 104.51 615.244 120.31 616.211 140.783L630.195 140.123C629.099 116.909 621.66 97.646 607.411 82.9814L597.37 92.7374ZM616.204 140.576L616.345 148.592L630.343 148.346L630.202 140.33L616.204 140.576ZM616.344 148.469C616.344 162.547 613.622 174.872 608.344 185.597L620.906 191.778C627.253 178.878 630.344 164.39 630.344 148.469H616.344ZM608.325 185.637C603.172 196.281 595.834 204.37 586.274 210.107L593.476 222.112C605.478 214.911 614.641 204.719 620.925 191.738L608.325 185.637ZM586.25 210.121C576.789 215.848 565.699 218.812 552.75 218.812V232.812C567.926 232.812 581.586 229.309 593.5 222.098L586.25 210.121ZM552.75 218.812C533.002 218.812 517.773 212.343 506.323 199.732L495.958 209.143C510.383 225.032 529.561 232.812 552.75 232.812V218.812ZM506.356 199.768C494.917 186.993 488.875 169.718 488.875 147.203H474.875C474.875 172.313 481.677 193.194 495.926 209.107L506.356 199.768ZM488.875 147.203V145.516H474.875V147.203H488.875ZM509.047 148.469C509.047 165 512.451 178.914 520.086 189.426L531.414 181.199C526.111 173.898 523.047 163.25 523.047 148.469H509.047ZM520.107 189.455C527.977 200.176 539.133 205.531 552.75 205.531V191.531C543.304 191.531 536.46 188.074 531.393 181.17L520.107 189.455ZM552.75 205.531C566.429 205.531 577.565 200.028 585.322 189.077L573.897 180.985C568.904 188.035 562.133 191.531 552.75 191.531V205.531ZM585.293 189.117C592.978 178.425 596.312 163.555 596.312 145.516H582.312C582.312 162.163 579.178 173.638 573.925 180.946L585.293 189.117ZM596.312 145.516C596.312 129.191 592.782 115.373 584.956 104.791L573.7 113.116C579.186 120.534 582.312 131.09 582.312 145.516H596.312ZM584.984 104.829C577.075 93.9827 566 88.4531 552.469 88.4531V102.453C561.625 102.453 568.456 105.924 573.672 113.077L584.984 104.829ZM552.469 88.4531C539.111 88.4531 528.15 93.9454 520.255 104.66L531.526 112.965C536.756 105.867 543.514 102.453 552.469 102.453V88.4531ZM520.276 104.632C512.416 115.187 509.047 130.178 509.047 148.469H523.047C523.047 131.509 526.24 120.063 531.505 112.993L520.276 104.632ZM665.036 89.4062L670.587 93.6707L670.594 93.6618L670.601 93.653L665.036 89.4062ZM747.864 84.9062L742.618 89.5405L754.864 103.404V84.9062H747.864ZM747.864 7V0H740.864V7H747.864ZM782.036 7H789.036V0H782.036V7ZM782.036 223V230H789.036V223H782.036ZM751.099 223L744.139 223.746L744.809 230H751.099V223ZM749.411 207.25L756.371 206.504L754.6 189.973L744.014 202.793L749.411 207.25ZM665.177 204.297L659.616 208.549L659.625 208.56L659.634 208.572L665.177 204.297ZM691.755 185.031L685.96 188.957L685.984 188.993L686.009 189.029L691.755 185.031ZM747.864 179.266L754.078 182.489L754.864 180.973V179.266H747.864ZM747.864 114.297H754.864V112.599L754.087 111.09L747.864 114.297ZM691.896 109.234L697.662 113.203L697.672 113.188L697.682 113.174L691.896 109.234ZM655.724 145.797C655.724 123.418 660.909 106.269 670.587 93.6707L659.485 85.1418C647.413 100.856 641.724 121.3 641.724 145.797H655.724ZM670.601 93.653C680.121 81.1781 692.621 75.0312 708.771 75.0312V61.0312C688.358 61.0312 671.701 69.1344 659.472 85.1595L670.601 93.653ZM708.771 75.0312C723.057 75.0312 734.117 79.9164 742.618 89.5405L753.111 80.272C741.737 67.3961 726.735 61.0312 708.771 61.0312V75.0312ZM754.864 84.9062V7H740.864V84.9062H754.864ZM747.864 14H782.036V0H747.864V14ZM775.036 7V223H789.036V7H775.036ZM782.036 216H751.099V230H782.036V216ZM758.059 222.254L756.371 206.504L742.451 207.996L744.139 223.746L758.059 222.254ZM744.014 202.793C735.218 213.445 723.614 218.812 708.489 218.812V232.812C727.489 232.812 743.167 225.805 754.809 211.707L744.014 202.793ZM708.489 218.812C692.89 218.812 680.483 212.681 670.72 200.022L659.634 208.572C671.995 224.6 688.464 232.812 708.489 232.812V218.812ZM670.737 200.045C660.991 187.299 655.724 169.471 655.724 145.797H641.724C641.724 171.436 647.425 192.607 659.616 208.549L670.737 200.045ZM675.896 148.75C675.896 164.997 678.98 178.654 685.96 188.957L697.55 181.105C692.717 173.971 689.896 163.441 689.896 148.75H675.896ZM686.009 189.029C693.384 199.631 704.068 204.969 717.208 204.969V190.969C708.411 190.969 702.126 187.682 697.501 181.034L686.009 189.029ZM717.208 204.969C725.261 204.969 732.615 203.161 738.994 199.269C745.372 195.378 750.358 189.659 754.078 182.489L741.651 176.042C738.902 181.341 735.544 184.974 731.703 187.317C727.864 189.66 723.124 190.969 717.208 190.969V204.969ZM754.864 179.266V114.297H740.864V179.266H754.864ZM754.087 111.09C750.448 104.03 745.513 98.4065 739.169 94.5884C732.833 90.7747 725.512 89.0156 717.489 89.0156V103.016C723.436 103.016 728.162 104.303 731.95 106.583C735.731 108.859 739 112.376 741.642 117.504L754.087 111.09ZM717.489 89.0156C704.215 89.0156 693.471 94.4832 686.109 105.295L697.682 113.174C702.321 106.361 708.639 103.016 717.489 103.016V89.0156ZM686.129 105.266C678.951 115.697 675.896 130.558 675.896 148.75H689.896C689.896 131.692 692.841 120.209 697.662 113.203L686.129 105.266ZM834.838 205.422L829.837 210.32L829.854 210.337L829.871 210.354L834.838 205.422ZM823.448 106L817.167 102.909L817.162 102.919L817.157 102.929L823.448 106ZM931.588 87.8594L926.257 92.3962L926.267 92.4071L926.276 92.418L931.588 87.8594ZM948.604 157.75V164.75H955.604V157.75H948.604ZM849.182 157.75V150.75H841.584L842.205 158.323L849.182 157.75ZM861.698 187.562L856.748 192.512L856.764 192.528L856.779 192.544L861.698 187.562ZM927.791 179.547L932.624 174.483L927.021 169.136L922.266 175.249L927.791 179.547ZM946.213 197.125L952.028 201.022L955.308 196.128L951.046 192.061L946.213 197.125ZM921.744 218.359L924.828 224.643L924.84 224.638L924.852 224.632L921.744 218.359ZM860.713 105.297L855.473 100.656L855.454 100.677L855.436 100.698L860.713 105.297ZM849.744 132.719L842.808 131.775L841.728 139.719H849.744V132.719ZM914.854 132.719V139.719H921.854V132.719H914.854ZM914.854 130.188H921.854V129.958L921.839 129.729L914.854 130.188ZM905.713 104.312L900.522 109.009L900.541 109.03L900.56 109.05L905.713 104.312ZM887.573 218.812C867.516 218.812 851.815 212.583 839.805 200.489L829.871 210.354C844.861 225.449 864.317 232.812 887.573 232.812V218.812ZM839.839 200.524C827.947 188.382 821.729 172.077 821.729 150.859H807.729C807.729 175.017 814.917 195.087 829.837 210.32L839.839 200.524ZM821.729 150.859V146.641H807.729V150.859H821.729ZM821.729 146.641C821.729 132.361 824.456 119.89 829.738 109.071L817.157 102.929C810.814 115.923 807.729 130.545 807.729 146.641H821.729ZM829.728 109.091C835.103 98.1715 842.503 89.8608 851.922 83.9428L844.473 72.0885C832.705 79.4829 823.605 89.8285 817.167 102.909L829.728 109.091ZM851.922 83.9428C861.352 78.0175 871.864 75.0312 883.635 75.0312V61.0312C869.344 61.0312 856.231 64.7013 844.473 72.0885L851.922 83.9428ZM883.635 75.0312C902.739 75.0312 916.597 81.0452 926.257 92.3962L936.919 83.3225C924.079 68.2361 905.968 61.0312 883.635 61.0312V75.0312ZM926.276 92.418C936.173 103.95 941.604 120.807 941.604 143.969H955.604C955.604 118.756 949.691 98.2058 936.9 83.3007L926.276 92.418ZM941.604 143.969V157.75H955.604V143.969H941.604ZM948.604 150.75H849.182V164.75H948.604V150.75ZM842.205 158.323C843.341 172.162 848.021 183.785 856.748 192.512L866.647 182.613C860.749 176.715 857.085 168.463 856.158 157.177L842.205 158.323ZM856.779 192.544C865.596 201.249 876.69 205.531 889.541 205.531V191.531C880.08 191.531 872.611 188.501 866.616 182.581L856.779 192.544ZM889.541 205.531C907.418 205.531 922.184 198.158 933.317 183.844L922.266 175.249C913.711 186.248 902.977 191.531 889.541 191.531V205.531ZM922.959 184.611L941.381 202.189L951.046 192.061L932.624 174.483L922.959 184.611ZM940.398 193.228C935.013 201.264 927.809 207.543 918.637 212.087L924.852 224.632C936.117 219.051 945.226 211.173 952.028 201.022L940.398 193.228ZM918.661 212.075C909.607 216.518 899.291 218.812 887.573 218.812V232.812C901.166 232.812 913.632 230.138 924.828 224.643L918.661 212.075ZM883.494 88.4531C872.273 88.4531 862.715 92.4794 855.473 100.656L865.953 109.938C870.336 104.989 875.966 102.453 883.494 102.453V88.4531ZM855.436 100.698C848.55 108.6 844.522 119.175 842.808 131.775L856.681 133.662C858.154 122.825 861.439 115.119 865.991 109.896L855.436 100.698ZM849.744 139.719H914.854V125.719H849.744V139.719ZM921.854 132.719V130.188H907.854V132.719H921.854ZM921.839 129.729C921.03 117.397 917.685 106.992 910.866 99.5749L900.56 109.05C904.429 113.258 907.177 120.103 907.869 130.646L921.839 129.729ZM910.904 99.6161C903.982 91.9659 894.534 88.4531 883.494 88.4531V102.453C891.393 102.453 896.756 104.847 900.522 109.009L910.904 99.6161Z" fill="#3424AC"/>
</g>
<defs>
<filter id="filter0_d" x="0.046875" y="0" width="956.556" height="234.812" filterUnits="userSpaceOnUse" color-interpolation-filters="sRGB">
<feFlood flood-opacity="0" result="BackgroundImageFix"/>
<feColorMatrix in="SourceAlpha" type="matrix" values="0 0 0 0 0 0 0 0 0 0 0 0 0 0 0 0 0 0 127 0"/>
<feOffset dy="1"/>
<feGaussianBlur stdDeviation="0.5"/>
<feColorMatrix type="matrix" values="0 0 0 0 0 0 0 0 0 0 0 0 0 0 0 0 0 0 0.25 0"/>
<feBlend mode="normal" in2="BackgroundImageFix" result="effect1_dropShadow"/>
<feBlend mode="normal" in="SourceGraphic" in2="effect1_dropShadow" result="shape"/>
</filter>
</defs>
</svg>
