<svg width="238" height="55" viewBox="0 0 238 55" fill="none" xmlns="http://www.w3.org/2000/svg">
<path d="M19.7033 54.7031C14.1252 54.7031 9.57828 52.9922 6.06265 49.5703C2.57047 46.1484 0.824371 41.5898 0.824371 35.8945V34.9102C0.824371 31.0898 1.56265 27.6797 3.03922 24.6797C4.51578 21.6562 6.60172 19.3359 9.29703 17.7188C12.0158 16.0781 15.1095 15.2578 18.5783 15.2578C23.7814 15.2578 27.8712 16.8984 30.8478 20.1797C33.8478 23.4609 35.3478 28.1133 35.3478 34.1367V38.2852H11.1252C11.4533 40.7695 12.4377 42.7617 14.0783 44.2617C15.7423 45.7617 17.84 46.5117 20.3712 46.5117C24.2853 46.5117 27.3439 45.0938 29.547 42.2578L34.5392 47.8477C33.0158 50.0039 30.9533 51.6914 28.3517 52.9102C25.7502 54.1055 22.8673 54.7031 19.7033 54.7031ZM18.5431 23.4844C16.5275 23.4844 14.8869 24.1641 13.6212 25.5234C12.3791 26.8828 11.5822 28.8281 11.2306 31.3594H25.3634V30.5508C25.3166 28.3008 24.7072 26.5664 23.5353 25.3477C22.3634 24.1055 20.6994 23.4844 18.5431 23.4844ZM51.2202 15.9609L51.5366 20.3555C54.2553 16.957 57.8998 15.2578 62.4702 15.2578C66.5014 15.2578 69.5014 16.4414 71.4702 18.8086C73.4389 21.1758 74.4467 24.7148 74.4936 29.4258V54H64.3334V29.6719C64.3334 27.5156 63.8647 25.957 62.9272 24.9961C61.9897 24.0117 60.4311 23.5195 58.2514 23.5195C55.392 23.5195 53.2475 24.7383 51.8178 27.1758V54H41.6577V15.9609H51.2202ZM98.7683 46.5117C100.643 46.5117 102.167 45.9961 103.339 44.9648C104.51 43.9336 105.12 42.5625 105.167 40.8516H114.694C114.671 43.4297 113.967 45.7969 112.585 47.9531C111.202 50.0859 109.303 51.75 106.889 52.9453C104.499 54.1172 101.85 54.7031 98.9441 54.7031C93.5066 54.7031 89.2175 52.9805 86.0769 49.5352C82.9362 46.0664 81.3659 41.2852 81.3659 35.1914V34.5234C81.3659 28.6641 82.9245 23.9883 86.0417 20.4961C89.1589 17.0039 93.4362 15.2578 98.8737 15.2578C103.632 15.2578 107.44 16.6172 110.3 19.3359C113.182 22.0312 114.647 25.6289 114.694 30.1289H105.167C105.12 28.1602 104.51 26.5664 103.339 25.3477C102.167 24.1055 100.62 23.4844 98.698 23.4844C96.3308 23.4844 94.5378 24.3516 93.3191 26.0859C92.1237 27.7969 91.5261 30.5859 91.5261 34.4531V35.5078C91.5261 39.4219 92.1237 42.2344 93.3191 43.9453C94.5144 45.6562 96.3308 46.5117 98.7683 46.5117ZM119.633 34.6289C119.633 30.8555 120.359 27.4922 121.812 24.5391C123.266 21.5859 125.352 19.3008 128.07 17.6836C130.812 16.0664 133.988 15.2578 137.598 15.2578C142.73 15.2578 146.914 16.8281 150.148 19.9688C153.406 23.1094 155.223 27.375 155.598 32.7656L155.668 35.3672C155.668 41.2031 154.039 45.8906 150.781 49.4297C147.523 52.9453 143.152 54.7031 137.668 54.7031C132.184 54.7031 127.801 52.9453 124.52 49.4297C121.262 45.9141 119.633 41.1328 119.633 35.0859V34.6289ZM129.793 35.3672C129.793 38.9766 130.473 41.7422 131.832 43.6641C133.191 45.5625 135.137 46.5117 137.668 46.5117C140.129 46.5117 142.051 45.5742 143.434 43.6992C144.816 41.8008 145.508 38.7773 145.508 34.6289C145.508 31.0898 144.816 28.3477 143.434 26.4023C142.051 24.457 140.105 23.4844 137.598 23.4844C135.113 23.4844 133.191 24.457 131.832 26.4023C130.473 28.3242 129.793 31.3125 129.793 35.3672ZM161.064 34.6992C161.064 28.7695 162.388 24.0469 165.036 20.5312C167.708 17.0156 171.353 15.2578 175.97 15.2578C179.673 15.2578 182.732 16.6406 185.146 19.4062V0H195.341V54H186.165L185.673 49.957C183.142 53.1211 179.884 54.7031 175.9 54.7031C171.423 54.7031 167.825 52.9453 165.107 49.4297C162.411 45.8906 161.064 40.9805 161.064 34.6992ZM171.224 35.4375C171.224 39 171.845 41.7305 173.087 43.6289C174.329 45.5273 176.134 46.4766 178.501 46.4766C181.642 46.4766 183.857 45.1523 185.146 42.5039V27.4922C183.88 24.8438 181.689 23.5195 178.572 23.5195C173.673 23.5195 171.224 27.4922 171.224 35.4375ZM221.444 54.7031C215.866 54.7031 211.319 52.9922 207.803 49.5703C204.311 46.1484 202.565 41.5898 202.565 35.8945V34.9102C202.565 31.0898 203.303 27.6797 204.78 24.6797C206.256 21.6562 208.342 19.3359 211.038 17.7188C213.756 16.0781 216.85 15.2578 220.319 15.2578C225.522 15.2578 229.612 16.8984 232.588 20.1797C235.588 23.4609 237.088 28.1133 237.088 34.1367V38.2852H212.866C213.194 40.7695 214.178 42.7617 215.819 44.2617C217.483 45.7617 219.581 46.5117 222.112 46.5117C226.026 46.5117 229.085 45.0938 231.288 42.2578L236.28 47.8477C234.756 50.0039 232.694 51.6914 230.092 52.9102C227.491 54.1055 224.608 54.7031 221.444 54.7031ZM220.284 23.4844C218.268 23.4844 216.628 24.1641 215.362 25.5234C214.12 26.8828 213.323 28.8281 212.971 31.3594H227.104V30.5508C227.057 28.3008 226.448 26.5664 225.276 25.3477C224.104 24.1055 222.44 23.4844 220.284 23.4844Z" fill="#FF5352"/>
</svg>
